<?xml version="1.0" encoding="UTF-8"?><svg id="a" xmlns="http://www.w3.org/2000/svg" viewBox="0 0 512 512"><defs><style>.b{fill:#111212;}.c{fill:#8cc2d1;}.d{fill:#cfd0cf;}.e{fill:#ce2329;}</style></defs><rect class="d" width="512" height="512"/><path class="b" d="M387.84,192c1.23.03,4.93-.19,5.12,0,.24.24-.24,2.32,0,2.56s2.32-.24,2.56,0c.36.36.36,9.88,0,10.24-.24.24-2.32-.24-2.56,0-.54.54.54,9.7,0,10.24-.24.24-2.32-.24-2.56,0-.59.59.63,9.41,0,10.24-.25.33-3.81-1.1-2.56,2.56,1.58.27,7.28-.4,7.68,0,.24.24-.24,2.32,0,2.56.54.54,9.7-.54,10.24,0,.24.24-.24,2.32,0,2.56.48.48,7.2-.48,7.68,0,.24.24-.24,2.32,0,2.56.54.54,9.7-.54,10.24,0,.24.24-.24,2.32,0,2.56.48.48,7.2-.48,7.68,0,.24.24-.24,2.32,0,2.56.38.38,4.74-.38,5.12,0,.24.24-.24,2.32,0,2.56s2.32-.24,2.56,0-.34,1.31,0,1.92c.49.88,2.38,1.91,2.56,2.56.38,1.37-.41,5.35,0,5.76.24.24,2.32-.24,2.56,0,.72.72.72,19.76,0,20.48-.24.24-2.32-.24-2.56,0-.48.48.48,7.2,0,7.68-.24.24-2.32-.24-2.56,0s.24,2.32,0,2.56-2.32-.24-2.56,0,.24,2.32,0,2.56c-.38.38-4.74-.38-5.12,0-.24.24.24,2.32,0,2.56-.38.38-4.74-.38-5.12,0-.18.18-.18,4.94,0,5.12.24.24,2.32-.24,2.56,0,.44.44-1.2,3.69,2.56,2.56-.68,3.57.91,24.69,0,25.6-.24.24-2.32-.24-2.56,0-.38.38.38,4.74,0,5.12-.24.24-2.32-.24-2.56,0s.24,2.32,0,2.56-2.32-.24-2.56,0,.24,2.32,0,2.56-2.32-.24-2.56,0c-.18.18-.18,4.94,0,5.12.62.62,3.82-1.88,2.56,5.12,0,0,4.74.25,5.03,1.33.26.96.43,11.13.09,11.47-.24.24-2.32-.24-2.56,0s.24,2.32,0,2.56c-.38.38-4.74-.38-5.12,0-.24.24.24,2.32,0,2.56-.38.38-4.74-.38-5.12,0-.24.24.24,2.32,0,2.56s-2.32-.24-2.56,0,.24,2.32,0,2.56-2.32-.24-2.56,0,.24,2.32,0,2.56c-.36.36-9.88.36-10.24,0-.18-.18-.18-4.94,0-5.12.24-.24,2.32.24,2.56,0s-.24-2.32,0-2.56,2.32.24,2.56,0-.24-2.32,0-2.56,2.32.24,2.56,0-.24-2.32,0-2.56,2.32.24,2.56,0-.25-2.33,0-2.56c.29-.27,4.35.21,4.78.12.52-.11.14-.95.34-2.04.25-1.39,2.81-.24,3.13-.57.16-.16-.17-2.4-.17-2.4-.85-.58-2.86-.13-2.96-.23-.24-.24.24-2.32,0-2.56s-2.32.24-2.56,0c-.38-.38.38-4.74,0-5.12s-4.74.38-5.12,0c-.18-.18-.18-4.94,0-5.12.24-.24,2.32.24,2.56,0s-.24-2.32,0-2.56,2.32.24,2.56,0c.38-.38-.38-4.74,0-5.12.24-.24,2.32.24,2.56,0s-.24-2.32,0-2.56,2.32.24,2.56,0-.24-2.32,0-2.56,2.32.24,2.56,0c.38-.38-.38-4.74,0-5.12.24-.24,2.32.24,2.56,0,.45-.45.45-12.35,0-12.8-.24-.24-2.32.24-2.56,0s.24-2.32,0-2.56-2.32.24-2.56,0,.24-2.32,0-2.56-2.32.24-2.56,0,.24-2.32,0-2.56c-.48-.48-7.2.48-7.68,0-.19-.19.13-2.56,0-2.56h-23.04c-.38,0-.27,7.41,0,7.68.24.24,2.32-.24,2.56,0,.48.48-.48,7.2,0,7.68.24.24,2.32-.24,2.56,0,.48.48-.48,7.2,0,7.68.24.24,2.32-.24,2.56,0,.48.48-.48,7.2,0,7.68.24.24,2.32-.24,2.56,0,.48.48-.48,7.2,0,7.68.24.24,2.32-.24,2.56,0,.48.48-.48,7.2,0,7.68.24.24,2.32-.24,2.56,0,.63.63.63,17.29,0,17.92-.24.24-2.32-.24-2.56,0s.24,2.32,0,2.56-2.32-.24-2.56,0c-.38.38.38,4.74,0,5.12-.24.24-2.32-.24-2.56,0s.24,2.32,0,2.56-2.32-.24-2.56,0,.24,2.32,0,2.56-2.32-.24-2.56,0c-.38.38.38,4.74,0,5.12-.24.24-2.32-.24-2.56,0-.38.38.38,4.74,0,5.12-.24.24-2.32-.24-2.56,0-.38.38.38,4.74,0,5.12-.24.24-2.32-.24-2.56,0-.38.38.38,4.74,0,5.12-.24.24-2.32-.24-2.56,0s.24,2.32,0,2.56-2.32-.24-2.56,0,.24,2.32,0,2.56-2.32-.24-2.56,0,.24,2.32,0,2.56-2.32-.24-2.56,0c-.38.38.38,4.74,0,5.12-.24.24-2.32-.24-2.56,0-.38.38.38,4.74,0,5.12-.24.24-2.32-.24-2.56,0s.24,2.32,0,2.56-2.32-.24-2.56,0c-.38.38.38,4.74,0,5.12s-4.74-.38-5.12,0c-.24.24.24,2.32,0,2.56s-2.32-.24-2.56,0,.24,2.32,0,2.56c-.38.38-4.74-.38-5.12,0-.24.24.24,2.32,0,2.56-.38.38-4.74-.38-5.12,0-.24.24.24,2.32,0,2.56s-2.32-.24-2.56,0,.24,2.32,0,2.56-2.32-.24-2.56,0,.24,2.32,0,2.56c-.27.27-7.41.27-7.68,0s-.27-7.41,0-7.68c.24-.24,2.32.24,2.56,0s-.24-2.32,0-2.56,2.32.24,2.56,0-.24-2.32,0-2.56,2.32.24,2.56,0-.24-2.32,0-2.56c.38-.38,4.74.38,5.12,0,.24-.24-.24-2.32,0-2.56.38-.38,4.74.38,5.12,0,.24-.24-.24-2.32,0-2.56s2.32.24,2.56,0-.24-2.32,0-2.56,2.32.24,2.56,0-.24-2.32,0-2.56,2.32.24,2.56,0-.24-2.32,0-2.56,2.32.24,2.56,0c.38-.38-.38-4.74,0-5.12.24-.24,2.32.24,2.56,0,.38-.38-.38-4.74,0-5.12.24-.24,2.32.24,2.56,0s-.24-2.32,0-2.56,2.32.24,2.56,0-.24-2.32,0-2.56,2.32.24,2.56,0-.24-2.32,0-2.56,2.32.24,2.56,0c.38-.38-.38-4.74,0-5.12.24-.24,2.32.24,2.56,0,.38-.38-.38-4.74,0-5.12.24-.24,2.32.24,2.56,0,.38-.38-.38-4.74,0-5.12.24-.24,2.32.24,2.56,0,.38-.38-.38-4.74,0-5.12.24-.24,2.32.24,2.56,0s-.24-2.32,0-2.56,2.32.24,2.56,0-.24-2.32,0-2.56,2.32.24,2.56,0c.38-.38-.38-4.74,0-5.12.24-.24,2.32.24,2.56,0s-.24-2.32,0-2.56,2.32.24,2.56,0c.18-.18.18-4.94,0-5.12-.24-.24-2.32.24-2.56,0-.54-.54.54-9.7,0-10.24-.24-.24-2.32.24-2.56,0-.38-.38.38-4.74,0-5.12-.24-.24-2.32.24-2.56,0-.48-.48.48-7.2,0-7.68-.24-.24-2.32.24-2.56,0-.48-.48.48-7.2,0-7.68-.24-.24-2.32.24-2.56,0-.48-.48.48-7.2,0-7.68-.24-.24-2.32.24-2.56,0-.48-.48.48-7.2,0-7.68-.24-.24-2.32.24-2.56,0-.54-.54-.54-14.82,0-15.36.24-.24,2.32.24,2.56,0s-.24-2.32,0-2.56c.18-.18,4.94-.18,5.12,0,.24.24-.24,2.32,0,2.56,1.18,1.18,32.1,1.18,33.28,0,.24-.24-.24-2.32,0-2.56.38-.38,4.74.38,5.12,0,.24-.24-.24-2.32,0-2.56.38-.38,4.74.38,5.12,0,.24-.24-.24-2.32,0-2.56.38-.38,4.74.38,5.12,0,.24-.24-.24-2.32,0-2.56s2.32.24,2.56,0c.48-.48-.48-7.2,0-7.68.24-.24,2.32.24,2.56,0,.27-.27.27-7.41,0-7.68-.24-.24-2.32.24-2.56,0-.48-.48.48-7.2,0-7.68-.24-.24-2.32.24-2.56,0s.24-2.32,0-2.56-2.32.24-2.56,0,.24-2.32,0-2.56c-.38-.38-4.74.38-5.12,0-.24-.24.24-2.32,0-2.56-.38-.38-4.74.38-5.12,0-.24-.24.24-2.32,0-2.56-.48-.48-7.2.48-7.68,0-.24-.24.24-2.32,0-2.56-.54-.54-9.7.54-10.24,0-.24-.24.24-2.32,0-2.56-.59-.59-12.21.59-12.8,0-.24-.24.24-2.32,0-2.56-.48-.48-7.2.48-7.68,0-.54-.54-.54-14.82,0-15.36.24-.24,2.32.24,2.56,0,.54-.54-.54-9.7,0-10.24.24-.24,2.32.24,2.56,0,.18-.18.18-4.94,0-5.12s-4.94-.18-5.12,0c-.24.24.24,2.32,0,2.56-.48.48-7.2-.48-7.68,0-.24.24.24,2.32,0,2.56s-2.32-.24-2.56,0c-.38.38.38,4.74,0,5.12-.24.24-2.32-.24-2.56,0s.24,2.32,0,2.56-2.32-.24-2.56,0,.24,2.32,0,2.56-2.32-.24-2.56,0,.24,2.32,0,2.56-2.32-.24-2.56,0,.24,2.32,0,2.56-2.32-.24-2.56,0c-.38.38.38,4.74,0,5.12-.24.24-2.32-.24-2.56,0s.24,2.32,0,2.56-2.32-.24-2.56,0c-.38.38.38,4.74,0,5.12-.24.24-2.32-.24-2.56,0s.24,2.32,0,2.56c-.38.38-4.74-.38-5.12,0s.38,4.74,0,5.12-4.74-.38-5.12,0c-.24.24.24,2.32,0,2.56-.38.38-4.74-.38-5.12,0-.24.24.24,2.32,0,2.56-.38.38-4.74-.38-5.12,0-.24.24.24,2.32,0,2.56-.38.38-4.74-.38-5.12,0-.24.24.34,1.31,0,1.92-.48.86-3.23,2.59-2.56,3.2.27.25,2.32-.24,2.56,0,.38.38-.38,4.74,0,5.12.24.24,2.32-.24,2.56,0,.38.38-.38,4.74,0,5.12.24.24,2.32-.24,2.56,0,.38.38-.38,4.74,0,5.12.62.62,3.82-1.88,2.56,5.12h2.6c.27,1.57-.43,4.72-.04,5.12.18.18,4.94.18,5.12,0,.24-.24-.24-2.32,0-2.56s2.32.24,2.56,0-.24-2.32,0-2.56,2.32.24,2.56,0-.24-2.32,0-2.56,2.32.24,2.56,0-.24-2.32,0-2.56,2.32.24,2.56,0c.38-.38-.38-4.74,0-5.12.24-.24,2.32.24,2.56,0,.48-.48-.48-7.2,0-7.68.24-.24,2.32.24,2.56,0s-.24-2.32,0-2.56,2.32.24,2.56,0-.24-2.32,0-2.56c.18-.18,4.94-.18,5.12,0,.36.36.36,9.88,0,10.24-.24.24-2.32-.24-2.56,0-.48.48.48,7.2,0,7.68-.24.24-2.32-.24-2.56,0-.38.38.38,4.74,0,5.12-.24.24-2.32-.24-2.56,0s.24,2.32,0,2.56-2.32-.24-2.56,0,.24,2.32,0,2.56-2.32-.24-2.56,0,.24,2.32,0,2.56-2.32-.24-2.56,0c-.38.38.38,4.74,0,5.12s-4.74-.38-5.12,0c-.24.24.24,2.32,0,2.56s-2.32-.24-2.56,0,.24,2.32,0,2.56-2.32-.24-2.56,0c-.59.59.59,12.21,0,12.8-.24.24-2.32-.24-2.56,0s.24,2.32,0,2.56-2.32-.24-2.56,0c-.38.38.38,4.74,0,5.12-.24.24-2.32-.24-2.56,0s.24,2.32,0,2.56-2.32-.24-2.56,0,.24,2.32,0,2.56-2.32-.24-2.56,0,.24,2.32,0,2.56-2.32-.24-2.56,0,.24,2.32,0,2.56c-.38.38-4.74-.38-5.12,0-.24.24.24,2.32,0,2.56-.45.45-12.35.45-12.8,0-.91-.91.91-24.69,0-25.6-.24-.24-2.32.24-2.56,0-.59-.59.59-12.21,0-12.8-.24-.24-2.32.24-2.56,0-.62-.62.62-14.74,0-15.36-.17-.17-1.15.14-1.92,0-1.39-.25-.31-2.23-.64-2.56-2.72-2.72-2.4,2.4-2.56,2.56-.45.45-12.35.45-12.8,0-.18-.18-.18-4.94,0-5.12.24-.24,2.32.24,2.56,0s-.24-2.32,0-2.56c.38-.38,4.74.38,5.12,0,.24-.24-.24-2.32,0-2.56s4.4.07,5.76,0c2.08-.1,3.67-1.09,1.92-2.56-.59-.49-14.82-.54-15.36,0-.24.24.24,2.32,0,2.56-.91.91-24.69-.91-25.6,0-.24.24.24,2.32,0,2.56-.72.72-19.76-.72-20.48,0-.24.24.24,2.32,0,2.56-.59.59-12.21-.59-12.8,0-.24.24.24,2.32,0,2.56-.59.59-12.21-.59-12.8,0-.24.24.24,2.32,0,2.56-.59.59-12.21-.59-12.8,0-.24.24.24,2.32,0,2.56-.91.91-24.69-.91-25.6,0-.24.24.24,2.32,0,2.56-.72.72-19.76-.72-20.48,0-.24.24.24,2.32,0,2.56-.81.81-22.23-.81-23.04,0-.24.24.24,2.32,0,2.56-.81.81-19.76-.61-23.04,0-1.25,3.66,2.31,2.23,2.56,2.56s-.24,2.32,0,2.56,2.32-.24,2.56,0c.18.18.18,4.94,0,5.12-.24.24-2.32-.24-2.56,0s.24,2.32,0,2.56-2.32-.24-2.56,0,.24,2.32,0,2.56-2.32-.24-2.56,0c-.18.18-.18,4.94,0,5.12.27.27,7.41.27,7.68,0,.24-.24-.24-2.32,0-2.56.27-.27,7.41-.27,7.68,0,.24.24-.24,2.32,0,2.56s2.32-.24,2.56,0c.18.18.18,4.94,0,5.12-.38.38-4.74-.38-5.12,0-.24.24.24,2.32,0,2.56s-2.32-.24-2.56,0c-.18.18-.18,4.94,0,5.12.81.81,6.53-1.92,5.12,2.56,2.33.46,9.76-.48,10.24,0,.24.24-.24,2.32,0,2.56s2.32-.24,2.56,0c.27.27.27,7.41,0,7.68s-7.41.27-7.68,0c-.24-.24.24-2.32,0-2.56-.54-.54-9.7.54-10.24,0-.24-.24.24-2.32,0-2.56-.38-.38-4.74.38-5.12,0-.24-.24.24-2.32,0-2.56s-2.32.24-2.56,0,.24-2.32,0-2.56-2.32.24-2.56,0c-.29-.29.26-5.12,0-5.12h-23.04c-.26,0-.18-4.94,0-5.12.24-.24,2.32.24,2.56,0s-.24-2.32,0-2.56c.38-.38,4.74.38,5.12,0,.24-.24-.24-2.32,0-2.56s2.32.24,2.56,0-.24-2.32,0-2.56,2.32.24,2.56,0-.24-2.32,0-2.56,2.32.24,2.56,0c.38-.38-.38-4.74,0-5.12.24-.24,2.32.24,2.56,0s-.24-2.32,0-2.56c.64-.64,1.88,1.84,2.56-1.92.25-1.39,2.23-.31,2.56-.64.13-.13.51-2.42-.64-2.56-1.26-.15-6.79-.25-7.04,0s.24,2.32,0,2.56c-.54.54-14.82.54-15.36,0-.38-.38-.27-9.89,0-10.88.18-.65,2.07-1.68,2.56-2.56.34-.61-.24-1.68,0-1.92s2.32.24,2.56,0c.48-.48-.48-7.2,0-7.68.24-.24,2.32.24,2.56,0,.38-.38-.38-4.74,0-5.12.24-.24,2.32.24,2.56,0,.48-.48-.48-7.2,0-7.68.24-.24,2.32.24,2.56,0,.48-.48-.48-7.2,0-7.68.24-.24,2.32.24,2.56,0,.59-.59-.59-12.21,0-12.8.24-.24,2.32.24,2.56,0,.59-.59-.59-12.21,0-12.8.24-.24,2.32.24,2.56,0,.48-.48-.48-7.2,0-7.68.24-.24,2.32.24,2.56,0s-.24-2.32,0-2.56,2.32.24,2.56,0c.65-.65-.65-17.27,0-17.92.24-.24,2.32.24,2.56,0,1.17-1.17-.28-3.56-2.56-2.56v-56.32c3.76,1.13,2.12-2.12,2.56-2.56.24-.24,2.32.24,2.56,0s-.24-2.32,0-2.56,2.32.24,2.56,0-.24-2.32,0-2.56c.38-.38,4.74.38,5.12,0,.24-.24-.24-2.32,0-2.56.48-.48,7.2.48,7.68,0,.24-.24-.24-2.32,0-2.56.48-.48,7.2.48,7.68,0,.24-.24-.24-2.32,0-2.56.48-.48,7.2.48,7.68,0,.24-.24-.24-2.32,0-2.56.59-.59,12.21.59,12.8,0,.24-.24-.24-2.32,0-2.56.54-.54,9.7.54,10.24,0,.24-.24-.24-2.32,0-2.56.72-.72,19.76.72,20.48,0,.24-.24-.24-2.32,0-2.56.65-.65,17.27.65,17.92,0,.24-.24-.24-2.32,0-2.56.68-.68,18.52.68,19.2,0,.24-.24-.24-2.32,0-2.56.65-.65,17.27.65,17.92,0,.24-.24-.24-2.32,0-2.56.56-.56,10.96.56,11.52,0,.24-.24-.24-2.32,0-2.56,1.39-1.39,14.73,2.72,12.8-2.56h51.2c-1.13,3.76,2.12,2.12,2.56,2.56.27.27.27,7.41,0,7.68-.36.36-9.88.36-10.24,0-.24-.24.24-2.32,0-2.56-1.36-1.36-33.37,1.03-38.4,0,1.93,5.28-11.41,1.17-12.8,2.56-.24.24.24,2.32,0,2.56-.59.59-12.21-.59-12.8,0-.24.24.24,2.32,0,2.56-.65.65-17.27-.65-17.92,0-.24.24.24,2.32,0,2.56-.65.65-17.27-.65-17.92,0-.24.24.24,2.32,0,2.56-.65.65-17.27-.65-17.92,0-.24.24.24,2.32,0,2.56-.72.72-19.76-.72-20.48,0-.24.24.24,2.32,0,2.56-.54.54-9.7-.54-10.24,0-.24.24.24,2.32,0,2.56-.59.59-12.21-.59-12.8,0-.24.24.24,2.32,0,2.56-.48.48-7.2-.48-7.68,0-.24.24.24,2.32,0,2.56-.48.48-7.2-.48-7.68,0-.24.24.24,2.32,0,2.56-.48.48-7.2-.48-7.68,0-.24.24.24,2.32,0,2.56-.38.38-4.74-.38-5.12,0-.24.24.24,2.32,0,2.56s-2.32-.24-2.56,0c-.44.44,1.2,3.69-2.56,2.56v48.64c.81.09,2.39-.17,2.56,0,.36.36.36,9.88,0,10.24-.16.16-5.32-.13-2.56,2.56.56.55,9.7-.54,10.24,0,.24.24-.24,2.32,0,2.56.38.38,4.74-.38,5.12,0,.24.24-.24,2.32,0,2.56.48.48,7.2-.48,7.68,0,.24.24-.24,2.32,0,2.56.32.32,3.28-.27,4.48,0,.46.1,3.4,2.46,3.84,2.56,1.61.35,6.62-.42,7.04,0,.24.24-.24,2.32,0,2.56.48.48,7.2-.48,7.68,0,.24.24-.24,2.32,0,2.56.54.54,9.7-.54,10.24,0,.24.24-.24,2.32,0,2.56.54.54,9.7-.54,10.24,0,.24.24-.24,2.32,0,2.56.48.48,7.2-.48,7.68,0,.24.24-.24,2.32,0,2.56.51.51,6.58-.48,8.32,0,.7.19,2.06,2.56,2.56,2.56h27.52c.38,0,.38,7.68,0,7.68h-35.84c-.13,0,.19-2.37,0-2.56-.48-.48-7.2.48-7.68,0-.24-.24.24-2.32,0-2.56-.54-.54-9.7.54-10.24,0-.24-.24.24-2.32,0-2.56-.48-.48-7.2.48-7.68,0-.24-.24.24-2.32,0-2.56-.59-.59-12.21.59-12.8,0-.24-.24.24-2.32,0-2.56-.38-.38-4.74.38-5.12,0-.24-.24.24-2.32,0-2.56-.54-.54-9.7.54-10.24,0-.24-.24.24-2.32,0-2.56-.48-.48-7.2.48-7.68,0-.24-.24.24-2.32,0-2.56-.38-.38-4.74.38-5.12,0-.24-.24.24-2.32,0-2.56-.36-.36-9.88-.36-10.24,0-.38.38.38,4.74,0,5.12-.24.24-2.32-.24-2.56,0s.24,2.32,0,2.56-2.32-.24-2.56,0c-.48.48.48,7.2,0,7.68-.24.24-2.32-.24-2.56,0-.59.59.59,12.21,0,12.8-.24.24-2.32-.24-2.56,0-.59.59.59,12.21,0,12.8-.24.24-2.32-.24-2.56,0-.48.48.48,7.2,0,7.68-.24.24-2.32-.24-2.56,0-.48.48.48,7.2,0,7.68-.24.24-2.32-.24-2.56,0-.38.38.38,4.74,0,5.12-.24.24-2.32-.24-2.56,0-.27.27-.27,7.41,0,7.68s7.41.27,7.68,0c.24-.24-.24-2.32,0-2.56.81-.81,22.23.81,23.04,0,.24-.24-.24-2.32,0-2.56.81-.81,22.23.81,23.04,0,.24-.24-.24-2.32,0-2.56.72-.72,19.76.72,20.48,0,.24-.24-.24-2.32,0-2.56.91-.91,24.69.91,25.6,0,.24-.24-.24-2.32,0-2.56.59-.59,12.21.59,12.8,0,.24-.24-.24-2.32,0-2.56.59-.59,12.21.59,12.8,0,.24-.24-.24-2.32,0-2.56.59-.59,12.21.59,12.8,0,.24-.24-.24-2.32,0-2.56.77-.77,20.99.77,21.76,0,.24-.24-.24-2.32,0-2.56.95-.95,25.93.95,26.88,0,.24-.24-.24-2.32,0-2.56.81-.81,22.23.81,23.04,0,.24-.24-.24-2.32,0-2.56.48-.48,7.2.48,7.68,0,.24-.24-.24-2.32,0-2.56.38-.38,4.74.38,5.12,0,.24-.24-.24-2.32,0-2.56.38-.38,4.74.38,5.12,0,.24-.24-.24-2.32,0-2.56.38-.38,4.74.38,5.12,0,.24-.24-.24-2.32,0-2.56.41-.41,4.39.38,5.76,0,.65-.18,1.68-2.07,2.56-2.56.61-.34,1.68.24,1.92,0s-.24-2.32,0-2.56,2.32.24,2.56,0-.24-2.32,0-2.56,2.32.24,2.56,0-.24-2.32,0-2.56c.38-.38,4.74.38,5.12,0s-.38-4.74,0-5.12c.24-.24,2.32.24,2.56,0s-.24-2.32,0-2.56,2.32.24,2.56,0c.38-.38-.38-4.74,0-5.12.24-.24,2.32.24,2.56,0s-.24-2.32,0-2.56,2.32.24,2.56,0-.24-2.32,0-2.56c.64-.64,1.88,1.84,2.56-1.92.25-1.39,2.23-.31,2.56-.64,3.69-3.69-7.34-2.22-7.68-2.56-.27-.27-.27-7.41,0-7.68.24-.24,2.32.24,2.56,0s-.24-2.32,0-2.56,2.32.24,2.56,0-.24-2.32,0-2.56,2.32.24,2.56,0-.24-2.32,0-2.56,2.32.24,2.56,0-.24-2.32,0-2.56c.38-.38,4.74.38,5.12,0,.24-.24-.24-2.32,0-2.56s2.32.24,2.56,0-.24-2.32,0-2.56c.38-.38,4.74.38,5.12,0,.24-.24-.24-2.32,0-2.56.41-.41,4.39.38,5.76,0,.65-.18,1.68-2.07,2.56-2.56,3.47-1.94,1.23-1.87,1.92-2.56.38-.38,4.74.38,5.12,0,.24-.24-.24-2.32,0-2.56s2.32.24,2.56,0-.24-2.32,0-2.56,2.32.24,2.56,0-.26-2.22,0-2.56,3.81,1.1,2.56-2.56h-17.92c-.13,0,.19-2.37,0-2.56-.48-.48-7.2.48-7.68,0-.24-.24.24-2.32,0-2.56-.38-.38-4.74.38-5.12,0-.24-.24.24-2.32,0-2.56-.54-.54-9.7.54-10.24,0-.24-.24.24-2.32,0-2.56-.54-.54-9.7.54-10.24,0-.18-.18-.18-4.94,0-5.12.24-.24,2.32.24,2.56,0s-.24-2.32,0-2.56c.54-.54,14.82-.54,15.36,0,.24.24-.24,2.32,0,2.56.41.41,4.39-.38,5.76,0,.65.18,1.68,2.07,2.56,2.56.61.34,1.68-.24,1.92,0s-.24,2.32,0,2.56c.59.59,12.21-.59,12.8,0,.24.24-.24,2.32,0,2.56.65.65,17.27-.65,17.92,0,.24.24-.24,2.32,0,2.56.38.38,4.74-.38,5.12,0,.24.24-.24,2.32,0,2.56s2.32-.24,2.56,0c.18.18.18,4.94,0,5.12-.24.24-2.32-.24-2.56,0s.24,2.32,0,2.56c-.38.38-4.74-.38-5.12,0s.38,4.74,0,5.12-4.74-.38-5.12,0c-.24.24.24,2.32,0,2.56s-2.32-.24-2.56,0,.24,2.32,0,2.56-2.32-.24-2.56,0,.24,2.32,0,2.56c-.38.38-4.74-.38-5.12,0-.24.24.24,2.29,0,2.56-.75.81-6.24-2.1-5.12,2.56-1.23.03-4.93-.19-5.12,0-.17.17.1,1.72,0,2.56-1.23.02-4.93-.19-5.12,0-.24.24.24,2.32,0,2.56-.18.18-5.28-.16-2.56,2.56s2.38-2.38,2.56-2.56c.38-.38,4.74.38,5.12,0,.17-.17-.1-1.72,0-2.56,3.61-.07,8.87,1.46,7.68-2.56ZM316.16,258.56c-3.66-1.25-2.23,2.31-2.56,2.56-.72.55-7.16-.52-7.68,0-.62.62,1.88,3.82-5.12,2.56-1.25,3.66,2.31,2.23,2.56,2.56.43.56-.4,4.72,0,5.12.24.24,2.32-.24,2.56,0,.62.62-.62,14.74,0,15.36.24.24,2.32-.24,2.56,0,.59.59-.59,12.21,0,12.8.24.24,2.32-.24,2.56,0,.72.72-.72,19.76,0,20.48.18.18,4.94.18,5.12,0,.24-.24-.24-2.32,0-2.56s2.32.24,2.56,0-.24-2.32,0-2.56,2.32.24,2.56,0-.24-2.32,0-2.56,2.32.24,2.56,0c.38-.38-.38-4.74,0-5.12.24-.24,2.32.24,2.56,0s-.24-2.32,0-2.56,2.32.24,2.56,0c.54-.54.54-14.82,0-15.36-.24-.24-2.32.24-2.56,0-.48-.48.48-7.2,0-7.68-.24-.24-2.32.24-2.56,0-.38-.38.38-4.74,0-5.12-.24-.24-2.32.24-2.56,0s.24-2.32,0-2.56-2.32.24-2.56,0c-.48-.48.48-7.2,0-7.68-.24-.24-2.32.24-2.56,0-.4-.4.27-6.1,0-7.68Z"/><path class="b" d="M147.2,348.16c-.62,3.76.92,2,1.92,2.56,2.11,1.17,4.72,6.16,3.2,7.68-.36.36-9.88.36-10.24,0-.24-.24.24-2.32,0-2.56-.36-.36-9.88-.36-10.24,0-.24.24.24,2.32,0,2.56s-2.32-.24-2.56,0,.24,2.32,0,2.56-2.32-.24-2.56,0c-.18.18-.18,4.94,0,5.12.24.24,2.32-.24,2.56,0,.48.48-.48,7.2,0,7.68.24.24,2.32-.24,2.56,0,.38.38-.38,4.74,0,5.12.24.24,2.32-.24,2.56,0s-.24,2.32,0,2.56c.38.38,4.74-.38,5.12,0,.24.24-.24,2.32,0,2.56.48.48,7.2-.48,7.68,0,.24.24-.24,2.32,0,2.56.56.56,10.96-.56,11.52,0,.24.24-.24,2.32,0,2.56.6.6,13.48-.6,14.08,0,.24.24-.24,2.32,0,2.56.63.63,15.22-.47,17.92,0,1.25-3.66-2.31-2.23-2.56-2.56s.24-2.32,0-2.56-2.32.24-2.56,0,.24-2.32,0-2.56-2.32.24-2.56,0c-.38-.38.38-4.74,0-5.12-.24-.24-2.32.24-2.56,0s.24-2.32,0-2.56-2.32.24-2.56,0c-.38-.38.38-4.74,0-5.12-.24-.24-2.32.24-2.56,0-.38-.38.38-4.74,0-5.12-.24-.24-2.32.24-2.56,0-.27-.27-.27-7.41,0-7.68.24-.24,2.26.25,2.56,0,.14-.12-.73-3.86,1.92-2.56.44.22,2.92,2.7,3.2,3.2.34.61-.24,1.68,0,1.92.4.4,4.27.73,4.55,1.01.81.83.85,2.79.48,5.61,0,0,2.04.44,2.65,1.05.38.38-.38,4.74,0,5.12.24.24,2.32-.24,2.56,0,.27.27-.66,4.25,3.2,6.4s.94,2.86,1.92,3.84c.24.24,2.32-.24,2.56,0s-.24,2.32,0,2.56,2.32-.24,2.56,0-.24,2.32,0,2.56,2.32-.24,2.56,0c.38.38-.38,4.74,0,5.12.24.24,2.32-.24,2.56,0s-.24,2.32,0,2.56,2.32-.24,2.56,0-.24,2.32,0,2.56,2.32-.24,2.56,0-.24,2.32,0,2.56,2.32-.24,2.56,0c.16.16.04,2.09.26,2.47.21.35,2.49-.29,2.93.11.57.51-.28,2.2.62,2.46.72.21,2.28.02,2.73.11.69.14.16,2.3.39,2.54s3.06-.25,3.3-.01-.24,2.32,0,2.56,2.32-.24,2.56,0-.24,2.32,0,2.56c.34.34,3.32-.32,4.48,0,.7.19-.28,2.42.44,2.63,1.54.46,3.19.23,3.8.23s.12,1.84.44,2.21c.22.25,3.4-.19,3.64.05s-.24,2.32,0,2.56c.38.38,4.74-.38,5.12,0,.24.24-.24,2.32,0,2.56.48.48,7.2-.48,7.68,0,.24.24-.24,2.32,0,2.56.65.65,17.27-.65,17.92,0,.24.24-.24,2.32,0,2.56.56.56,7.68-.53,9.6,0,.7.19,1.86,2.37,2.56,2.56,4.63,1.28,19.49-.2,19.77.93.35,1.39.78,6.09.23,6.64-1,1-26.22.6-27.04.11-.29-.47-.22-2.39-.63-2.37-2.58.09-8.66.76-9.61-.19-.24-.24.24-2.32,0-2.56-.54-.54-14.82-.54-15.36,0-.38.38.38,4.74,0,5.12-.24.24-2.32-.24-2.56,0s.24,2.32,0,2.56-2.32-.24-2.56,0,.24,2.32,0,2.56c-.38.38-4.74-.38-5.12,0-.24.24.24,2.32,0,2.56-1.09,1.09-29.63-1.09-30.72,0-.24.24.24,2.32,0,2.56-.48.48-7.2-.48-7.68,0-.24.24.24,2.32,0,2.56-.63.63-17.29.63-17.92,0s1.88-3.82-5.12-2.56c.54-2.99-.72-19.76,0-20.48.24-.24,2.32.24,2.56,0,1-1-1-27.16,0-28.16.16-.16,5.32.13,2.56-2.56-.65-.63-14.73.63-15.36,0-.24-.24.24-2.32,0-2.56-.59-.59-12.21.59-12.8,0-.24-.24.24-2.32,0-2.56-.59-.59-12.21.59-12.8,0-.24-.24.24-2.32,0-2.56-.48-.48-7.2.48-7.68,0-.24-.24.24-2.32,0-2.56-.38-.38-4.74.38-5.12,0-.24-.24.24-2.32,0-2.56s-2.32.24-2.56,0,.24-2.32,0-2.56-2.32.24-2.56,0c-.38-.38.38-4.74,0-5.12-.24-.24-2.32.24-2.56,0-.48-.48.48-7.2,0-7.68-.24-.24-2.32.24-2.56,0-.54-.54-.54-14.82,0-15.36.24-.24,2.32.24,2.56,0s-.24-2.32,0-2.56,2.32.24,2.56,0-.24-2.32,0-2.56,2.32.24,2.56,0-.24-2.32,0-2.56c.72-.72,17.49.54,20.48,0ZM198.4,396.8c-2.72-2.72-2.38,2.38-2.56,2.56-.54.54-9.68-.55-10.24,0-1.28,1.25.57,3.66,2.56,2.56-.89,4.45,1.18,32.1,0,33.28-.24.24-2.32-.24-2.56,0-.27.27-.27,7.41,0,7.68.24.24,2.32-.24,2.56,0s-.24,2.32,0,2.56c.27.27,7.41.27,7.68,0,.24-.24-.24-2.32,0-2.56.48-.48,7.2.48,7.68,0,.24-.24-.24-2.32,0-2.56,1.18-1.18,32.1,1.18,33.28,0,.24-.24-.24-2.32,0-2.56s2.32.24,2.56,0-.24-2.32,0-2.56,2.32.24,2.56,0c.18-.18.18-4.94,0-5.12-.38-.38-4.74.38-5.12,0-.24-.24.24-2.32,0-2.56-.38-.38-4.74.38-5.12,0-.24-.24.24-2.32,0-2.56s-2.32.24-2.56,0,.24-2.32,0-2.56c-.38-.38-4.74.38-5.12,0-.24-.24.24-2.32,0-2.56-.38-.38-4.74.38-5.12,0-.24-.24.24-2.32,0-2.56s-2.32.24-2.56,0,.24-2.32,0-2.56-2.32.24-2.56,0,.24-2.32,0-2.56-2.32.24-2.56,0,.24-2.32,0-2.56-2.32.24-2.56,0,.24-2.32,0-2.56-2.32.24-2.56,0,.24-2.32,0-2.56-2.32.24-2.56,0,.24-2.32,0-2.56-2.32.24-2.56,0,.24-2.32,0-2.56-2.32.24-2.56,0,.24-2.32,0-2.56Z"/><path class="b" d="M208.64,202.24c-.58-4.74-1.76-1.76-2.56-2.56-.24-.24.24-2.32,0-2.56s-2.32.24-2.56,0c-.38-.38.38-4.74,0-5.12-.24-.24-2.32.24-2.56,0-.38-.38.38-4.74,0-5.12-.24-.24-2.32.24-2.56,0-.38-.38.38-4.74,0-5.12-.24-.24-2.32.24-2.56,0-.36-.36-.36-9.88,0-10.24.24-.24,2.32.24,2.56,0,.38-.38-.38-4.74,0-5.12.24-.24,2.32.24,2.56,0s-.24-2.32,0-2.56,2.32.24,2.56,0-.24-2.32,0-2.56c.38-.38,4.74.38,5.12,0,.24-.24-.24-2.32,0-2.56.48-.48,7.2.48,7.68,0,.24-.24-.24-2.32,0-2.56.16-.16,5.28.16,2.56-2.56-.33-.33-2.31.75-2.56-.64-.14-.77.17-1.75,0-1.92-.36-.36-9.88-.36-10.24,0-.24.24.24,2.32,0,2.56-.36.36-9.88.36-10.24,0-.18-.18-.18-4.94,0-5.12.24-.24,2.32.24,2.56,0s-.24-2.32,0-2.56,2.32.24,2.56,0-.24-2.32,0-2.56c.54-.54,9.7.54,10.24,0,.24-.24-.24-2.32,0-2.56.36-.36,9.88-.36,10.24,0,.24.24-.24,2.32,0,2.56s2.32-.24,2.56,0c.38.38-.38,4.74,0,5.12.24.24,2.32-.24,2.56,0,.48.48-.48,7.2,0,7.68.65.65,17.27-.65,17.92,0,.24.24-.24,2.32,0,2.56s2.32-.24,2.56,0c.38.38-.38,4.74,0,5.12.24.24,2.32-.24,2.56,0s-.24,2.32,0,2.56,2.32-.24,2.56,0c.64.64.61,7.21-2.56,5.12.61,3.28-.81,22.23,0,23.04.21.21,4.43-.6,5.12,1.92.27.99.38,10.5,0,10.88-.59.59-12.21-.59-12.8,0-.24.24.24,2.32,0,2.56-.72.72-19.76.72-20.48,0-.24-.24.24-2.32,0-2.56-.54-.54-9.7.54-10.24,0-.24-.24.24-2.32,0-2.56.33-2.7.14-2.89-2.56-2.56ZM239.36,163.84c-4.6-.2-1.84-1.84-2.56-2.56-2.72-2.72-2.38,2.38-2.56,2.56-.62.62-14.74-.62-15.36,0-.24.24.24,2.32,0,2.56-.48.48-7.2-.48-7.68,0-.24.24.24,2.32,0,2.56-.48.48-7.2-.48-7.68,0-.17.17.14,1.15,0,1.92-.25,1.39-2.24.31-2.56.64-2.68,2.75,2.38,2.38,2.56,2.56.48.48-.48,7.2,0,7.68.24.24,2.32-.24,2.56,0,.48.48-.48,7.2,0,7.68.24.24,2.32-.24,2.56,0,.38.38-.38,4.74,0,5.12.24.24,2.32-.24,2.56,0,.38.38-.38,4.74,0,5.12.24.24,2.32-.24,2.56,0s-.24,2.32,0,2.56c.88.88,22.49.41,24.96,0,.49-.08.85-1.28,1.28-1.28.32,0,1.4,1.91,1.92,1.28.8-.98.24-7.44,0-7.68-.27-.27.01-6.21,0-7.68-.03-2.97-.62-19.67,0-20.48.25-.33,3.81,1.1,2.56-2.56-1.69-.05-3.43.07-5.12,0Z"/><path class="b" d="M241.92,276.48c.54.54.54,14.82,0,15.36-.27.27-7.41.27-7.68,0-.4-.4.27-6.11,0-7.68-4.5-.88-.77,3.72-5.12,2.56.61,3.28-.81,22.23,0,23.04.24.24,2.32-.24,2.56,0,1.09,1.09,1.09,29.63,0,30.72-.24.24-2.32-.24-2.56,0-.54.54.54,9.7,0,10.24-.27.27-7.41.27-7.68,0-.24-.24.24-2.32,0-2.56s-2.32.24-2.56,0,.24-2.32,0-2.56-2.32.24-2.56,0,.24-2.32,0-2.56-2.32.24-2.56,0c-.38-.38.38-4.74,0-5.12-.24-.24-2.32.24-2.56,0-.48-.48.48-7.2,0-7.68-.24-.24-2.32.24-2.56,0-.45-.45-.45-12.35,0-12.8.24-.24,2.32.24,2.56,0s-.24-2.32,0-2.56c.18-.18,4.94-.18,5.12,0,.48.48-.48,7.2,0,7.68.24.24,2.32-.24,2.56,0,.48.48-.48,7.2,0,7.68.24.24,2.32-.24,2.56,0,.23.23-.58,8.86,2.56,5.12.58-.69.63-17.29,0-17.92-.24-.24-2.32.24-2.56,0-1.27-1.27.96-31.1,0-35.84,3.76,1.13,2.12-2.12,2.56-2.56.24-.24,2.32.24,2.56,0s-.24-2.32,0-2.56,2.32.24,2.56,0-.24-2.32,0-2.56c.29-.29,7.43-.24,8.32,0,.65.18,1.68,2.07,2.56,2.56.61.34,1.68-.24,1.92,0Z"/><path class="b" d="M101.12,327.68c.33.33-.75,2.31.64,2.56.77.14,1.75-.17,1.92,0,.27.27.27,7.41,0,7.68-.24.24-2.32-.24-2.56,0s.24,2.32,0,2.56-2.32-.24-2.56,0,.24,2.32,0,2.56c-.38.38-4.74-.38-5.12,0-.24.24.24,2.32,0,2.56s-2.32-.24-2.56,0,.24,2.32,0,2.56c-.38.38-4.74-.38-5.12,0-.24.24.26,2.22,0,2.56s-3.81-1.1-2.56,2.56c7-1.26,4.5,1.94,5.12,2.56.48.48,7.2-.48,7.68,0,.24.24-.24,2.32,0,2.56.48.48,7.2-.48,7.68,0,.24.24-.24,2.32,0,2.56.38.38,4.74-.38,5.12,0,.24.24-.24,2.32,0,2.56s2.32-.24,2.56,0c.54.54-.54,9.7,0,10.24.24.24,2.32-.24,2.56,0,1.01,1.01-2.51,6.86,3.84,5.12l1.28,5.12c3.84-1.16,4.76,4.76,5.12,5.12.24.24,2.32-.24,2.56,0,.18.18.18,4.94,0,5.12-.36.36-9.88.36-10.24,0-.24-.24.24-2.32,0-2.56-.38-.38-4.74.38-5.12,0s.38-4.74,0-5.12c-.24-.24-2.32.24-2.56,0s.24-2.32,0-2.56-2.32.24-2.56,0c-.38-.38.38-4.74,0-5.12-.24-.24-2.32.24-2.56,0-.54-.54.54-9.7,0-10.24-.48-.48-7.2.48-7.68,0-.24-.24.24-2.32,0-2.56-.38-.38-4.74.38-5.12,0-.24-.24.24-2.32,0-2.56-.48-.48-7.2.48-7.68,0-.24-.24.24-2.32,0-2.56-.54-.54-9.7.54-10.24,0-.45-.45-.45-12.35,0-12.8.24-.24,2.32.24,2.56,0s-.24-2.32,0-2.56,2.32.24,2.56,0-.24-2.32,0-2.56,2.32.24,2.56,0-.24-2.32,0-2.56c.38-.38,4.74.38,5.12,0,.24-.24-.24-2.32,0-2.56s2.32.24,2.56,0-.24-2.32,0-2.56c.38-.38,4.74.38,5.12,0,.24-.24-.24-2.32,0-2.56s2.32.24,2.56,0-.24-2.32,0-2.56,2.32.24,2.56,0c.16-.16-.16-5.28,2.56-2.56Z"/><path class="b" d="M328.96,394.24c.27.27.27,7.41,0,7.68-.24.24-2.32-.24-2.56,0-.59.59.59,12.21,0,12.8-.24.24-2.32-.24-2.56,0-.48.48.48,7.2,0,7.68-.44.44-3.69-1.2-2.56,2.56-4.45-.89-32.1,1.18-33.28,0-.24-.24.24-2.32,0-2.56-.38-.38-4.74.38-5.12,0-.24-.24.24-2.32,0-2.56s-2.32.24-2.56,0,.24-2.32,0-2.56-2.32.24-2.56,0,.24-2.32,0-2.56-2.32.24-2.56,0c-.38-.38.38-4.74,0-5.12-.24-.24-2.32.24-2.56,0-.27-.27-.27-7.41,0-7.68.24-.24,2.32.24,2.56,0s-.24-2.32,0-2.56c.18-.18,4.94-.18,5.12,0,.24.24-.24,2.32,0,2.56s2.32-.24,2.56,0c.38.38-.38,4.74,0,5.12.24.24,2.32-.24,2.56,0s-.24,2.32,0,2.56,2.32-.24,2.56,0-.24,2.32,0,2.56,2.32-.24,2.56,0-.24,2.32,0,2.56c.82.82,6.58-1.91,5.12,2.56,2.99-.54,19.76.72,20.48,0,.48-.48-.48-7.2,0-7.68.24-.24,2.32.24,2.56,0,.59-.59-.59-12.21,0-12.8.24-.24,2.32.24,2.56,0s-.24-2.32,0-2.56c.27-.27,7.41-.27,7.68,0Z"/><path class="b" d="M206.08,312.32c.27.27.27,7.41,0,7.68-.24.24-2.32-.24-2.56,0s.24,2.32,0,2.56c-.72.72-19.76-.72-20.48,0-.24.24.24,2.32,0,2.56-.38.38-4.74-.38-5.12,0-.24.24.24,2.32,0,2.56s-2.32-.24-2.56,0,.24,2.32,0,2.56-2.32-.24-2.56,0,.24,2.32,0,2.56-2.32-.24-2.56,0c-.27.27-.27,7.41,0,7.68.24.24,2.32-.24,2.56,0,.27.27.27,7.41,0,7.68-.36.36-9.88.36-10.24,0-.24-.24.24-2.32,0-2.56s-2.32.24-2.56,0c-.45-.45-.45-12.35,0-12.8.24-.24,2.32.24,2.56,0,.38-.38-.38-4.74,0-5.12.24-.24,2.32.24,2.56,0s-.24-2.32,0-2.56,2.32.24,2.56,0-.24-2.32,0-2.56,2.32.24,2.56,0-.24-2.32,0-2.56,2.32.24,2.56,0-.24-2.32,0-2.56c.38-.38,4.74.38,5.12,0,.24-.24-.24-2.32,0-2.56.72-.72,19.76.72,20.48,0,.24-.24-.24-2.32,0-2.56.27-.27,7.41-.27,7.68,0Z"/><path class="b" d="M85.76,89.6c-1.43.03-7.41.27-7.68,0s-.27-7.41,0-7.68c.24-.24,2.32.24,2.56,0,.19-.19-.13-2.56,0-2.56h25.6c.64,0,.45,12.35,0,12.8-.24.24-2.32-.24-2.56,0s.24,2.32,0,2.56c-.54.54-9.7-.54-10.24,0-.24.24.24,2.32,0,2.56s-2.32-.24-2.56,0c-.18.18-.18,4.94,0,5.12.24.24,2.32-.24,2.56,0,.36.36.36,9.88,0,10.24-.27.27-7.41.27-7.68,0-.38-.38.38-4.74,0-5.12-.24-.24-2.32.24-2.56,0s.24-2.32,0-2.56-2.32.24-2.56,0c-.36-.36-.36-9.88,0-10.24.24-.24,2.32.24,2.56,0s-.24-2.32,0-2.56c.8-.8,1.98,2.18,2.56-2.56,1.63-.03,8.06.38,5.12-2.56-.18-.18-4.94-.18-5.12,0-.17.17.1,1.72,0,2.56Z"/><path class="b" d="M328.96,158.72c.27.27.27,7.41,0,7.68-.24.24-2.32-.24-2.56,0s.24,2.32,0,2.56-2.32-.24-2.56,0,.24,2.32,0,2.56-2.32-.24-2.56,0,.24,2.32,0,2.56-2.32-.24-2.56,0,.24,2.32,0,2.56c-.38.38-4.74-.38-5.12,0-.24.24.24,2.32,0,2.56s-2.32-.24-2.56,0,.24,2.32,0,2.56-2.32-.24-2.56,0,.24,2.32,0,2.56-2.32-.24-2.56,0,.24,2.32,0,2.56-2.32-.24-2.56,0,.24,2.32,0,2.56-2.32-.24-2.56,0,.24,2.32,0,2.56c-.38.38-4.74-.38-5.12,0-.24.24.24,2.32,0,2.56s-2.32-.24-2.56,0,.24,2.32,0,2.56c-.27.27-7.41.27-7.68,0s-.27-7.41,0-7.68c.24-.24,2.32.24,2.56,0s-.24-2.32,0-2.56,2.32.24,2.56,0-.24-2.32,0-2.56c.38-.38,4.74.38,5.12,0,.24-.24-.24-2.32,0-2.56s2.32.24,2.56,0-.24-2.32,0-2.56,2.32.24,2.56,0-.24-2.32,0-2.56,2.32.24,2.56,0-.24-2.32,0-2.56,2.32.24,2.56,0-.24-2.32,0-2.56,2.32.24,2.56,0-.24-2.32,0-2.56c.38-.38,4.74.38,5.12,0,.24-.24-.24-2.32,0-2.56s2.32.24,2.56,0-.24-2.32,0-2.56,2.32.24,2.56,0-.24-2.32,0-2.56,2.32.24,2.56,0-.24-2.32,0-2.56c.27-.27,7.41-.27,7.68,0Z"/><path class="b" d="M218.88,87.04c-.24-.24.24-2.32,0-2.56-.38-.38-4.74.38-5.12,0-.24-.24.24-2.32,0-2.56-.38-.38-4.74.38-5.12,0-.24-.24.24-2.32,0-2.56s-2.32.24-2.56,0c-.45-.45-.45-12.35,0-12.8.24-.24,2.32.24,2.56,0s-.24-2.32,0-2.56,2.32.24,2.56,0-.24-2.32,0-2.56c.54-.54,14.82-.54,15.36,0,.36.36.36,9.88,0,10.24-.29.29-6.61-.08-8.32,0-2.08.1-3.67,1.09-1.92,2.56.49.41,4.72-.4,5.12,0,.24.24-.24,2.32,0,2.56.38.38,4.74-.38,5.12,0,.24.24-.24,2.32,0,2.56.54.54,9.7-.54,10.24,0,.27.27.38,7.68,0,7.68-2.71,0-17.29.63-17.92,0Z"/><path class="b" d="M116.48,92.16c-.24-.24.24-2.32,0-2.56-.38-.38-4.74.38-5.12,0-.34-.34-.26-8.66,0-9.6.2-.71.24-2.96,0-3.2s.24-2.32,0-2.56-2.32.24-2.56,0c-.18-.18-.18-4.94,0-5.12.24-.24,2.32.24,2.56,0s-.24-2.32,0-2.56c.27-.27,7.41-.27,7.68,0,.24.24-.24,2.32,0,2.56.38.38,4.74-.38,5.12,0,.24.24-.24,2.32,0,2.56.38.38,4.74-.38,5.12,0,.24.24-.24,2.32,0,2.56s2.32-.24,2.56,0-.24,2.32,0,2.56,2.32-.24,2.56,0c.54.54.77,15.36,0,15.36-2.71,0-17.29.63-17.92,0ZM116.48,76.8c-.21,1.81-.63,4.47-.36,4.76.19.21,2.8.24,2.92.36.24.24-.08,2.31.25,2.56.56.44,0,0,6.79,0,1.16,0,.77-2.43.64-2.56-.33-.33-2.31.75-2.56-.64-.14-.77.17-1.75,0-1.92s.39-3.42-.22-3.42c-.38,0-2.29.16-2.64.04s-1.78.04-2.69.09c-1.05.06-2.07.25-2.12.72Z"/><path class="b" d="M216.32,353.28c.24.24-.24,2.32,0,2.56.54.54,9.7-.54,10.24,0,.24.24-.24,2.32,0,2.56.54.54,9.7-.54,10.24,0,.24.24-.24,2.32,0,2.56.38.38,4.74-.38,5.12,0,.27.27.27,7.41,0,7.68-.45.45-12.35.45-12.8,0-.24-.24.24-2.32,0-2.56-.54-.54-9.7.54-10.24,0-.24-.24.24-2.32,0-2.56-.48-.48-7.2.48-7.68,0-.24-.24.24-2.32,0-2.56-.62-.62-14.74.62-15.36,0-.18-.18-.18-4.94,0-5.12.24-.24,2.32.24,2.56,0s-.24-2.32,0-2.56c.63-.63,17.29-.63,17.92,0Z"/><path class="b" d="M195.84,51.2c.27.27.27,7.41,0,7.68-.16.16-5.32-.13-2.56,2.56.56.55,9.7-.54,10.24,0,.27.27.27,7.41,0,7.68-.46.46-8.37-.33-10.24,0-1.25,3.66,2.31,2.23,2.56,2.56s-.24,2.32,0,2.56,2.32-.24,2.56,0c.27.27.27,7.41,0,7.68-.36.36-9.88.36-10.24,0-.24-.24.24-2.32,0-2.56s-2.32.24-2.56,0c-.48-.48.48-7.2,0-7.68-.24-.24-2.32.24-2.56,0-.27-.27-.27-7.41,0-7.68.24-.24,2.32.24,2.56,0,.54-.54-.54-9.7,0-10.24.24-.24,2.32.24,2.56,0s-.24-2.32,0-2.56c.27-.27,7.41-.27,7.68,0Z"/><path class="b" d="M336.64,99.84c.36.36.36,9.88,0,10.24-.24.24-2.32-.24-2.56,0-.72.72-.72,19.76,0,20.48.24.24,2.32-.24,2.56,0,.54.54.54,14.82,0,15.36-.27.27-7.41.27-7.68,0-.48-.48.48-7.2,0-7.68-.24-.24-2.32.24-2.56,0-1.18-1.18.89-28.83,0-33.28,3.76,1.13,2.12-2.12,2.56-2.56.24-.24,2.32.24,2.56,0s-.24-2.32,0-2.56c.18-.18,4.94-.18,5.12,0Z"/><path class="b" d="M147.2,61.44c.38.38-.38,4.74,0,5.12.18.18,4.94.18,5.12,0,.24-.24-.24-2.32,0-2.56.48-.48,7.2.48,7.68,0,.24-.24-.24-2.32,0-2.56.36-.36,9.88-.36,10.24,0,.27.27.27,7.41,0,7.68-.38.38-4.74-.38-5.12,0-.24.24.24,2.32,0,2.56-.48.48-7.2-.48-7.68,0-.24.24.24,2.32,0,2.56s-2.32-.24-2.56,0,.24,2.32,0,2.56-2.32-.24-2.56,0,.24,2.32,0,2.56c-.36.36-9.88.36-10.24,0-.38-.38.38-4.74,0-5.12-.24-.24-2.32.24-2.56,0-.36-.36-.36-9.88,0-10.24.24-.24,2.32.24,2.56,0s-.24-2.32,0-2.56c.18-.18,4.94-.18,5.12,0Z"/><path class="b" d="M267.52,66.56c.27.27.27,7.41,0,7.68-.59.59-12.21-.59-12.8,0-.24.24.24,2.32,0,2.56s-2.32-.24-2.56,0c-.38.38.38,4.74,0,5.12-.24.24-2.32-.24-2.56,0-.38.38.38,4.74,0,5.12-.36.36-9.88.36-10.24,0-.54-.54-.54-14.82,0-15.36.24-.24,2.32.24,2.56,0s-.24-2.32,0-2.56c.48-.48,7.2.48,7.68,0,.19-.19-.13-2.56,0-2.56,2.71,0,17.29-.63,17.92,0Z"/><path class="b" d="M349.44,322.56c.27.27.27,7.41,0,7.68-.24.24-2.32-.24-2.56,0s.24,2.32,0,2.56c-.38.38-4.74-.38-5.12,0-.24.24.24,2.32,0,2.56-.38.38-4.74-.38-5.12,0-.24.24.24,2.32,0,2.56s-2.32-.24-2.56,0,.24,2.32,0,2.56c-.27.27-7.41.27-7.68,0s-.27-7.41,0-7.68c.24-.24,2.32.24,2.56,0s-.24-2.32,0-2.56,2.32.24,2.56,0-.24-2.32,0-2.56c.38-.38,4.74.38,5.12,0,.24-.24-.24-2.32,0-2.56.38-.38,4.74.38,5.12,0,.24-.24-.24-2.32,0-2.56.27-.27,7.41-.27,7.68,0Z"/><path class="b" d="M308.48,368.64c.27.27.27,7.41,0,7.68-.24.24-2.32-.24-2.56,0s.24,2.32,0,2.56c-.36.36-9.88.36-10.24,0-.18-.18-.18-4.94,0-5.12.24-.24,2.32.24,2.56,0s-.34-1.31,0-1.92c.26-.47,2.98-3.14,3.2-3.2.84-.23,6.79-.25,7.04,0Z"/><path class="c" d="M241.92,186.88c.01,1.47-.27,7.41,0,7.68.24.24.8,6.7,0,7.68-.52.63-2.71-.08-3.2,0-2.47.41-24.08.88-24.96,0-.24-.24.24-2.32,0-2.56s-2.32.24-2.56,0c-.38-.38.38-4.74,0-5.12-.24-.24-2.32.24-2.56,0-.38-.38.38-4.74,0-5.12-.24-.24-2.32.24-2.56,0-.48-.48.48-7.2,0-7.68-.24-.24-2.32.24-2.56,0-.48-.48.48-7.2,0-7.68-.18-.18-5.24.19-2.56-2.56.32-.33,2.31.75,2.56-.64.14-.77-.17-1.75,0-1.92.48-.48,7.2.48,7.68,0,.24-.24-.24-2.32,0-2.56.48-.48,7.2.48,7.68,0,.24-.24-.24-2.32,0-2.56.62-.62,14.74.62,15.36,0,.18-.18-.16-5.28,2.56-2.56.72.72,1.92,1.68,6.53,1.88,5.39,2.77-1.85,11.83-1.55,17.55.13,2.51.75,1.91.14,6.16ZM231.68,171.52c-1.37-.22-5.94-.3-7.04,0-.7.19-1.84,2.35-2.56,2.56-.92.27-2.93-.27-3.2,0-.24.24.24,2.32,0,2.56s-1.31-.34-1.92,0c-.99.55-1.48,1.81-3.2,2.56s-1.72,2.56-1.28,4.48c.11.47,1.05.73,1.28,1.28.29.69-.22,1.7,0,1.92.14.14,1.72-.04,2.56,0,.1,1.05-.24,2.39,0,3.2.2.67,2.07,1.68,2.56,2.56.34.61-.24,1.68,0,1.92.54.54,14.8.53,15.36,0,1.08-1.02-1.29-3.03-1.28-3.2.01-.36,1.74-.88,1.28-2.56-1.52-5.53-.97-8.25-1.28-14.08-.08-1.55.69-2.89-1.28-3.2Z"/><path class="e" d="M232.37,172.35c-.54,2.99.72,19.76,0,20.48-.27.27-10.64,1.94-11.92.72-1.49-1.42-1.95-2.7-2.19-2.94-.21-.21,0-2.85-1.26-2.9-.08-.84.16-2.4,0-2.56-.62-.62-3.82,1.88-2.56-5.12,1.72-.75,2.21-2.01,3.2-2.56.61-.34,1.68.24,1.92,0s-.24-2.32,0-2.56c.27-.27,2.28.27,3.2,0,.72-.21,1.86-2.37,2.56-2.56,1.1-.3,5.67-.22,7.04,0Z"/></svg>